# xmcd CD database file
#
# Track frame offsets:
#	150
#	21310
#	58222
#	82315
#	109221
#	133407
#	163005
#	188801
#	223248
#	244210
#
# Disc length: 3609 seconds
#
# Revision: 0
# Processed by: cddbd v1.5.2PL0 Copyright (c) Steve Scherf et al.
# Submitted via: CDex 1.70beta2
#
DISCID=a00e170a
DTITLE=Ilja Reijengoud Quartet - new arrival
DYEAR=1900
DGENRE=Jazz
TTITLE0=Original blonde
TTITLE1=Why certainly
TTITLE2=Welcome home
TTITLE3=Sready daddy
TTITLE4=Blue alternative
TTITLE5=Sheriff's jail chain gang detail
TTITLE6=New arrival
TTITLE7=Romantic Warrior
TTITLE8=Your private little wing
TTITLE9=Let's dance
EXTD=
EXTT0=
EXTT1=
EXTT2=
EXTT3=
EXTT4=
EXTT5=
EXTT6=
EXTT7=
EXTT8=
EXTT9=
PLAYORDER=
